<svg width="512" height="512" viewBox="0 0 512 512" fill="none" xmlns="http://www.w3.org/2000/svg">
<rect width="512" height="512" rx="15" fill="#3B76F6"/>
<path d="M300.54 196.933C309.103 196.982 316.353 204.265 316.272 212.749C316.175 221.297 308.844 228.5 300.345 228.418C291.652 228.321 284.775 221.281 284.823 212.522C284.872 203.665 291.7 196.901 300.54 196.95V196.933Z" fill="#F5F5F5"/>
<path d="M227.068 212.846C227.003 221.605 219.948 228.499 211.141 228.402C202.723 228.321 195.96 221.33 195.96 212.733C195.96 203.925 202.95 196.852 211.563 196.949C220.353 197.047 227.133 204.006 227.068 212.846Z" fill="#F5F5F5"/>
<path d="M424.306 361.447C422.976 361.269 421.532 359.468 420.754 358.073C417.007 351.504 413.455 344.821 409.903 338.154C407.535 333.726 405.184 329.297 402.832 324.869C399.004 317.667 395.193 310.448 391.349 303.198C392.306 302.614 392.873 302.224 393.49 301.916C396.993 300.197 398.372 297.407 397.382 293.676C396.409 290.026 393.506 289.637 390.278 289.734C386.24 289.848 382.185 289.767 378.13 289.767H351.904C352.845 287.95 352.926 287.561 353.153 287.382C354.564 286.328 356.024 285.355 357.451 284.333C369.405 275.768 378.098 264.656 382.574 250.658C384.067 246.002 386.013 244.25 390.992 244.364C399.426 244.542 404.421 239.644 404.843 231.566C404.876 231.257 404.892 230.949 404.892 230.625C405.005 220.422 405.038 210.202 404.892 199.999C404.876 198.458 404.681 196.998 404.357 195.668C402.848 189.731 398.339 186.098 391.576 186.195C391.252 186.195 390.927 186.195 390.619 186.179C385.899 186.001 384.586 183.762 383.693 179.074C381.147 165.692 373.719 153.786 363.517 145.107C352.748 135.894 338.913 130.265 324.559 130.249C309.07 130.233 293.581 130.33 278.092 130.2C273.08 130.168 266.43 131.384 263.527 128.74C260.98 126.421 262.813 119.478 262.375 114.596C261.97 110.135 263.251 107.393 267.549 105.09C275.756 100.71 279.503 90.8479 277.281 82.0723C275.529 75.1946 270.647 69.6146 264.435 66.857C262.051 65.8026 259.472 65.17 256.812 65.024C253.617 64.8618 250.39 65.5269 247.405 66.857C242.037 69.2415 237.463 73.7509 235.306 79.2823C231.949 87.847 234.008 98.6827 241.858 103.354C248.443 107.264 249.319 112.114 248.751 118.472C248.573 120.386 248.524 122.365 248.751 124.279C249.303 128.821 247.616 130.411 242.88 130.346C224.747 130.103 206.614 130.216 188.482 130.249C157.682 130.33 133.142 150.33 126.93 180.631C126.168 184.33 125.033 185.871 120.913 185.936C111.279 186.098 107.03 190.818 106.949 200.583C106.868 210.089 106.9 219.594 106.932 229.1C106.965 240.082 110.825 244.267 121.659 244.413C125.309 244.461 126.768 245.743 127.887 249.182C132.737 264.218 141.706 276.336 154.86 285.257C156.06 286.068 157.082 287.123 158.947 288.728C156.271 288.874 154.714 289.02 153.173 289.053C142.095 289.296 131.001 289.296 119.94 289.945C117.767 290.075 114.458 292.362 114.004 294.227C113.501 296.271 115.496 299.078 116.81 301.332C117.296 302.192 118.87 302.451 120.313 303.149C110.76 321.138 101.353 339.03 91.6866 356.76C90.5188 358.901 87.7291 360.117 85.8639 361.95C84.7124 363.086 83.1716 364.513 83.0743 365.892C82.8796 368.812 83.0418 371.926 83.869 374.716C89.3348 393.176 101.596 404.985 120.248 409.202C138.965 413.436 155.07 407.775 167.737 393.322C174.241 385.909 178.799 377.36 178.945 367.206C178.977 365.405 177.177 362.096 176.09 362.048C172.003 361.869 170.884 359.079 169.392 356.289C162.515 343.41 155.589 330.563 148.729 317.667C146.199 312.93 143.766 308.129 140.765 302.338H147.415C176.804 302.338 206.209 302.322 235.598 302.338H236.344C242.475 302.354 242.734 302.597 242.523 308.729C242.523 308.875 242.523 309.021 242.523 309.183C241.615 334.683 240.593 360.166 239.653 385.665C239.588 387.077 239.539 388.488 239.49 389.899C239.198 397.799 239.263 398.075 232.062 399.891C231.803 399.956 231.527 400.037 231.235 400.102C230.894 400.183 230.57 400.362 230.245 400.459C218.568 403.671 214.14 412.803 211.95 423.444C211.172 427.289 209.696 428.813 205.739 428.667C201.003 428.489 196.153 428.408 191.563 429.3C189.098 429.787 185.692 432.025 185.124 434.134C184.378 436.924 185.092 441.012 186.827 443.299C188.238 445.148 192.066 445.878 194.839 445.894C201.327 445.927 207.815 445.943 214.302 445.943C244.34 446.024 274.377 446.008 304.415 445.992H316.287C317.861 445.992 319.499 446.024 321.007 445.635C325.5 444.499 327.008 441.19 326.895 436.859C326.781 432.69 325.24 429.543 320.65 429.154C316.466 428.781 312.184 428.229 308.048 428.684C307.27 428.765 306.572 428.813 305.94 428.781C303.474 428.716 301.901 427.856 300.847 426.218C300.052 425.034 299.533 423.444 299.128 421.449C297.311 412.463 293.921 406.818 287.969 403.395C284.839 401.595 280.979 400.41 276.275 399.68C272.755 399.145 272.155 397.264 272.042 394.295C271.766 386.768 271.49 379.258 271.198 371.732C271.166 370.418 271.117 369.088 271.053 367.774C270.89 363.41 270.728 359.047 270.566 354.683C270.371 349.46 270.16 344.253 269.95 339.03C269.56 328.973 269.139 318.9 268.685 308.843C268.474 303.895 269.69 302.176 274.978 302.208C280.881 302.257 286.801 302.306 292.705 302.322C316.904 302.419 341.086 302.322 365.269 302.338C366.923 302.354 368.561 302.565 370.962 302.727C366.923 310.221 362.949 317.586 359.024 324.901C352.715 336.581 346.487 348.081 340.21 359.55C339.659 360.555 338.069 361.447 336.869 361.561C333.463 361.918 332.912 364.156 333.058 366.784C333.074 367.109 333.09 367.433 333.106 367.774C333.252 370.061 333.479 372.38 334.047 374.603C338.556 392.17 352.196 404.79 369.615 408.91C374.789 410.127 380.304 410.597 386.013 410.224C390.278 409.948 394.479 408.959 398.453 407.385C414.12 401.221 426.641 386.006 428.863 368.682C428.896 368.374 428.928 368.066 428.945 367.774C429.269 364.529 428.717 361.999 424.322 361.447H424.306ZM159.174 361.366H102.067C111.749 343.28 121.043 325.907 130.855 307.529C140.538 325.923 149.637 343.215 159.174 361.366ZM293.629 259.401C292.721 259.401 291.813 259.401 290.905 259.401C279.146 259.466 267.387 259.401 255.628 259.401C249.173 259.417 242.702 259.433 236.247 259.433C225.656 259.466 215.065 259.466 204.457 259.401C179.999 259.222 160.828 242.19 158.898 219.108C156.676 192.586 171.873 171.434 196.591 166.762C199.154 166.276 201.83 166.146 204.457 166.146C238.744 166.097 273.047 166.081 307.334 166.13C327.024 166.146 343.162 177.566 349.763 195.636C351.483 200.291 352.553 205.385 352.894 210.851C353.348 218.313 352.229 225.32 349.747 231.566C344.216 245.532 331.906 255.735 315.201 258.849C308.226 260.163 300.831 259.352 293.629 259.385V259.401ZM352.293 361.301C358.96 348.99 365.431 337.019 372 324.885C375.081 319.224 378.163 313.498 381.309 307.707C384.358 313.514 387.343 319.224 390.327 324.869C396.717 337.067 402.994 349.022 409.433 361.301H352.293Z" fill="#F5F5F5"/>
</svg>
